<svg xmlns="http://www.w3.org/2000/svg" width="700" height="620" viewBox="0 0 700 620">
  <defs>
    <linearGradient id="progressGrad" x1="0%" y1="0%" x2="100%" y2="0%">
      <stop offset="0%" style="stop-color:#e94560"/>
      <stop offset="100%" style="stop-color:#0f3460"/>
    </linearGradient>
    <filter id="shadow">
      <feDropShadow dx="0" dy="4" stdDeviation="8" flood-color="#000" flood-opacity="0.4"/>
    </filter>
  </defs>

  <!-- Background -->
  <rect width="700" height="620" fill="#1a1a2e"/>

  <!-- Container -->
  <rect x="40" y="15" width="620" height="590" rx="16" fill="#16213e" filter="url(#shadow)"/>

  <!-- Title -->
  <text x="350" y="55" text-anchor="middle" font-family="Segoe UI, sans-serif" font-size="22" font-weight="bold" fill="#e94560" letter-spacing="1">PDF 해시 위변조 검증</text>

  <!-- PDF 파일 선택 label -->
  <text x="76" y="90" font-family="Segoe UI, sans-serif" font-size="13" fill="#aaa" font-weight="600">PDF 파일 선택</text>

  <!-- File path box -->
  <rect x="76" y="100" width="440" height="38" rx="8" fill="#0f3460" stroke="#333" stroke-width="1"/>
  <text x="90" y="124" font-family="Segoe UI, sans-serif" font-size="13" fill="#fff">C:\Users\Documents\계약서_최종.pdf</text>

  <rect x="526" y="100" width="100" height="38" rx="8" fill="#e94560"/>
  <text x="576" y="124" text-anchor="middle" font-family="Segoe UI, sans-serif" font-size="14" fill="#fff" font-weight="600">파일 찾기</text>

  <text x="76" y="152" font-family="Segoe UI, sans-serif" font-size="12" fill="#666">파일명: 계약서_최종.pdf | 크기: 2.45 MB</text>

  <!-- 해시 알고리즘 -->
  <text x="76" y="178" font-family="Segoe UI, sans-serif" font-size="13" fill="#aaa" font-weight="600">해시 알고리즘</text>

  <rect x="76" y="186" width="130" height="34" rx="8" fill="#1a4a7a"/>
  <circle cx="94" cy="203" r="6" fill="none" stroke="#e94560" stroke-width="2"/>
  <circle cx="94" cy="203" r="3" fill="#e94560"/>
  <text x="108" y="208" font-family="Segoe UI, sans-serif" font-size="13" fill="#fff" font-weight="600">SHA-256 (권장)</text>

  <rect x="216" y="186" width="95" height="34" rx="8" fill="#0f3460"/>
  <circle cx="234" cy="203" r="6" fill="none" stroke="#666" stroke-width="2"/>
  <text x="248" y="208" font-family="Segoe UI, sans-serif" font-size="13" fill="#ccc">SHA-512</text>

  <rect x="321" y="186" width="70" height="34" rx="8" fill="#0f3460"/>
  <circle cx="339" cy="203" r="6" fill="none" stroke="#666" stroke-width="2"/>
  <text x="353" y="208" font-family="Segoe UI, sans-serif" font-size="13" fill="#ccc">MD5</text>

  <rect x="401" y="186" width="75" height="34" rx="8" fill="#0f3460"/>
  <circle cx="419" cy="203" r="6" fill="none" stroke="#666" stroke-width="2"/>
  <text x="433" y="208" font-family="Segoe UI, sans-serif" font-size="13" fill="#ccc">SHA-1</text>

  <!-- 해시값 입력 -->
  <text x="76" y="255" font-family="Segoe UI, sans-serif" font-size="13" fill="#aaa" font-weight="600">비교할 해시값 입력</text>

  <rect x="76" y="263" width="550" height="38" rx="8" fill="#0f3460" stroke="#333" stroke-width="1"/>
  <text x="90" y="287" font-family="Consolas, monospace" font-size="11" fill="#fff">e3b0c44298fc1c149afbf4c8996fb92427ae41e4649b934ca495991b7852b855</text>

  <!-- Progress bar (100%) -->
  <text x="76" y="330" font-family="Segoe UI, sans-serif" font-size="13" fill="#aaa" font-weight="600">검증 진행률</text>

  <rect x="76" y="338" width="550" height="24" rx="12" fill="#0f3460"/>
  <rect x="76" y="338" width="550" height="24" rx="12" fill="url(#progressGrad)"/>
  <text x="351" y="355" text-anchor="middle" font-family="Segoe UI, sans-serif" font-size="12" fill="#fff" font-weight="700">100%</text>

  <!-- Verify button -->
  <rect x="76" y="380" width="550" height="44" rx="10" fill="#e94560"/>
  <text x="351" y="408" text-anchor="middle" font-family="Segoe UI, sans-serif" font-size="16" fill="#fff" font-weight="600">검증 시작</text>

  <!-- Result: MATCH -->
  <rect x="76" y="440" width="550" height="150" rx="12" fill="rgba(46,213,115,0.15)" stroke="#2ed573" stroke-width="2"/>

  <!-- Check icon -->
  <text x="351" y="480" text-anchor="middle" font-family="Segoe UI, sans-serif" font-size="36">✅</text>

  <!-- Match title -->
  <text x="351" y="508" text-anchor="middle" font-family="Segoe UI, sans-serif" font-size="18" fill="#2ed573" font-weight="700">일치 - 파일이 변조되지 않았습니다</text>

  <!-- Details -->
  <text x="90" y="534" font-family="Consolas, monospace" font-size="10" fill="#bbb">알고리즘: SHA-256</text>
  <text x="90" y="550" font-family="Consolas, monospace" font-size="10" fill="#888">계산된 해시: e3b0c44298fc1c149afbf4c8996fb92427ae41e4649b934ca495991b7852b855</text>
  <text x="90" y="566" font-family="Consolas, monospace" font-size="10" fill="#888">입력된 해시: e3b0c44298fc1c149afbf4c8996fb92427ae41e4649b934ca495991b7852b855</text>
</svg>
